<?xml version="1.0" standalone="no"?>
<!DOCTYPE svg PUBLIC "-//W3C//DTD SVG 20010904//EN"
 "http://www.w3.org/TR/2001/REC-SVG-20010904/DTD/svg10.dtd">
<svg version="1.0" xmlns="http://www.w3.org/2000/svg"
 width="640.000000pt" height="640.000000pt" viewBox="0 0 640.000000 640.000000"
 preserveAspectRatio="xMidYMid meet">

<g transform="translate(0.000000,640.000000) scale(0.100000,-0.100000)"
fill="#000000" stroke="none">
<path d="M2540 6193 c-49 -8 -88 -24 -105 -43 -16 -18 -15 -19 13 -34 60 -31
96 -155 90 -311 l-3 -91 -52 -69 c-147 -199 -233 -406 -233 -561 0 -77 30
-177 69 -229 l29 -39 -97 -32 c-53 -18 -144 -55 -201 -84 -98 -49 -113 -61
-245 -194 -77 -77 -162 -173 -188 -213 -196 -296 -209 -578 -40 -846 l24 -39
32 49 c45 70 153 172 227 216 272 159 589 83 798 -191 62 -82 131 -227 163
-342 22 -77 24 -104 23 -280 0 -166 -4 -206 -22 -272 -105 -381 -366 -624
-667 -622 -242 2 -450 146 -584 404 -146 283 -157 645 -26 926 19 42 33 80 29
83 -8 8 -160 -33 -241 -65 -121 -48 -203 -102 -298 -198 -123 -125 -185 -236
-231 -416 -25 -101 -26 -298 -2 -390 25 -93 91 -218 148 -282 l49 -56 -31 -6
c-17 -3 -53 -6 -80 -6 -123 0 -310 -60 -428 -139 -212 -140 -346 -351 -410
-646 -57 -265 9 -488 196 -666 190 -179 442 -267 839 -291 163 -10 200 -9 396
11 119 12 294 33 390 48 203 30 188 29 439 15 107 -7 332 -16 500 -22 168 -5
415 -16 550 -25 617 -36 1612 -50 1925 -26 534 41 763 129 910 351 64 97 129
240 154 339 28 114 29 287 1 395 -68 266 -306 514 -672 702 -59 30 -108 57
-108 60 0 2 7 15 16 29 48 73 68 351 39 532 -68 418 -294 654 -659 688 -42 4
-76 9 -76 11 0 2 11 42 24 88 37 127 51 273 37 381 -10 72 -19 101 -51 154
-172 296 -401 451 -665 451 l-82 0 20 68 c28 98 28 298 -1 405 -106 389 -506
803 -1113 1153 -74 42 -158 88 -187 100 -96 43 -268 78 -332 67z m1891 -2464
c217 -71 400 -279 483 -549 38 -124 45 -188 42 -350 -3 -117 -9 -164 -30 -245
-66 -252 -215 -456 -404 -553 -97 -50 -154 -63 -264 -63 -166 0 -295 57 -428
191 -123 124 -199 265 -239 447 -106 474 97 962 462 1110 116 47 257 52 378
12z m-2295 -2051 c44 5 523 9 1094 8 998 -1 1016 -1 1063 -21 65 -28 79 -50
65 -104 -14 -55 -137 -186 -257 -275 -215 -157 -436 -251 -701 -297 -108 -19
-344 -16 -465 5 -297 53 -612 213 -823 419 -85 83 -116 136 -108 185 3 20 7
42 8 49 1 6 7 9 14 6 6 -2 15 0 19 6 3 6 1 11 -5 11 -6 0 -8 5 -4 11 5 8 9 8
14 -1 5 -8 28 -9 86 -2z m2211 -14 c-3 -3 -12 -4 -19 -1 -8 3 -5 6 6 6 11 1
17 -2 13 -5z"/>
<path d="M4160 3363 c-101 -36 -209 -184 -245 -334 -19 -83 -19 -255 0 -338
33 -140 116 -261 217 -316 46 -26 63 -30 128 -30 61 0 84 5 125 27 148 78 238
264 237 493 -1 187 -55 329 -161 428 -91 84 -193 108 -301 70z"/>
<path d="M2069 3366 c-94 -33 -159 -98 -215 -211 -42 -88 -60 -166 -63 -275
-8 -341 206 -597 442 -526 107 32 203 142 253 291 25 72 28 94 28 215 0 120
-3 144 -27 217 -76 227 -251 349 -418 289z"/>
</g>
</svg>
