<?xml version="1.0" standalone="no"?>
<!DOCTYPE svg PUBLIC "-//W3C//DTD SVG 20010904//EN"
 "http://www.w3.org/TR/2001/REC-SVG-20010904/DTD/svg10.dtd">
<svg version="1.0" xmlns="http://www.w3.org/2000/svg"
 width="60.000000pt" height="60.000000pt" viewBox="0 0 60.000000 60.000000"
 preserveAspectRatio="xMidYMid meet">

<g transform="translate(0.000000,60.000000) scale(0.100000,-0.100000)"
fill="#000000" stroke="none">
<path d="M190 391 c-14 -28 -13 -47 6 -66 30 -30 57 20 38 69 -8 22 -31 20
-44 -3z"/>
<path d="M372 398 c-17 -17 -15 -63 4 -79 14 -11 18 -10 30 6 17 22 18 40 4
66 -12 22 -21 24 -38 7z"/>
<path d="M182 198 c2 -7 20 -21 39 -31 43 -23 134 -19 174 7 36 24 26 30 -18
11 -52 -22 -125 -19 -165 5 -22 13 -32 16 -30 8z"/>
</g>
</svg>
