<?xml version="1.0" standalone="no"?>
<!DOCTYPE svg PUBLIC "-//W3C//DTD SVG 20010904//EN"
 "http://www.w3.org/TR/2001/REC-SVG-20010904/DTD/svg10.dtd">
<svg version="1.0" xmlns="http://www.w3.org/2000/svg"
 width="640.000000pt" height="640.000000pt" viewBox="0 0 640.000000 640.000000"
 preserveAspectRatio="xMidYMid meet">

<g transform="translate(0.000000,640.000000) scale(0.100000,-0.100000)"
fill="#000000" stroke="none">
<path d="M5155 4459 c-324 -4 -601 -9 -615 -12 -14 -3 -68 -11 -120 -17 -274
-33 -627 -122 -878 -221 l-73 -29 -241 0 -241 0 -111 36 c-265 86 -615 162
-971 211 -182 25 -214 26 -753 30 -623 5 -593 8 -628 -59 -13 -24 -15 -51 -12
-117 4 -84 6 -88 53 -156 65 -94 119 -211 167 -363 58 -186 124 -351 176 -439
164 -281 396 -468 663 -533 114 -28 445 -37 564 -15 175 32 342 104 476 205
190 142 355 389 437 651 52 166 102 239 165 239 27 0 42 -8 66 -35 42 -48 58
-81 96 -200 152 -468 466 -775 869 -850 106 -20 317 -22 461 -5 464 55 780
309 856 686 33 163 89 303 246 604 l85 164 -4 72 c-3 50 -11 82 -27 107 -21
34 -66 59 -100 55 -9 -1 -281 -5 -606 -9z"/>
<path d="M1727 2343 c-15 -14 -5 -45 36 -125 60 -115 172 -272 232 -325 125
-110 374 -260 560 -338 296 -124 532 -159 863 -127 298 29 568 137 826 331
197 148 328 297 406 463 39 83 40 108 1 108 -46 0 -76 -15 -206 -100 -415
-270 -884 -412 -1360 -412 -158 0 -178 2 -286 30 -317 84 -613 222 -847 395
-125 93 -200 126 -225 100z"/>
</g>
</svg>
